<svg height="512" viewBox="0 0 512 512" width="512" xmlns="http://www.w3.org/2000/svg"><g id="Filled_cutting_stroke_EX" data-name="Filled cutting stroke EX"><g><rect fill="#fa5d3f" height="312" rx="20" width="464" x="24" y="144"/><g fill="#fac850"><path d="m458 376h-2v-232h12a20 20 0 0 1 20 20v182a30 30 0 0 1 -30 30z"/><path d="m54 384h2v-240h-12a20 20 0 0 0 -20 20v190a30 30 0 0 0 30 30z"/><path d="m328 232h-40v-40h-64v40h-40v64h40v40h64v-40h40z"/><path d="m104 68v44h32v-32h240v32h32v-44a20 20 0 0 0 -20-20h-264a20 20 0 0 0 -20 20z"/></g><path d="m98 112h44a10 10 0 0 1 10 10v22a0 0 0 0 1 0 0h-64a0 0 0 0 1 0 0v-22a10 10 0 0 1 10-10z" fill="#d63924"/><path d="m370 112h44a10 10 0 0 1 10 10v22a0 0 0 0 1 0 0h-64a0 0 0 0 1 0 0v-22a10 10 0 0 1 10-10z" fill="#d63924"/><rect fill="#fac850" height="48" rx="10" width="80" x="216" y="376"/><g><path d="m468 136h-36v-14a18.02 18.02 0 0 0 -18-18h-30v-24a8 8 0 0 0 -8-8h-240a8 8 0 0 0 -8 8v24h-16v-36a12.0137 12.0137 0 0 1 12-12h264a12.0137 12.0137 0 0 1 12 12v20h16v-20a28.0314 28.0314 0 0 0 -28-28h-264a28.0314 28.0314 0 0 0 -28 28v36.1107a18.0257 18.0257 0 0 0 -16 17.8893v14h-36a28.0314 28.0314 0 0 0 -28 28v28h16v-28a12.0137 12.0137 0 0 1 12-12h4v227.7051a32.019 32.019 0 0 1 -16-27.7051v-144h-16v228a28.0314 28.0314 0 0 0 28 28h424a28.0314 28.0314 0 0 0 28-28v-20h-16v20a12.0137 12.0137 0 0 1 -12 12h-424a12.0137 12.0137 0 0 1 -12-12v-48.2532a47.8081 47.8081 0 0 0 32 12.2532h144v14a18.02 18.02 0 0 0 18 18h60a18.02 18.02 0 0 0 18-18v-14h124a67.8817 67.8817 0 0 0 52-24.2285v24.2285h16v-236a28.0314 28.0314 0 0 0 -28-28zm-52-14v14h-48v-14a2.002 2.002 0 0 1 2-2h44a2.002 2.002 0 0 1 2 2zm-48-34v16.1107a18.0258 18.0258 0 0 0 -16 17.8893v14h-192v-14a18.0257 18.0257 0 0 0 -16-17.8893v-16.1107zm-272 34a2.002 2.002 0 0 1 2-2h44a2.002 2.002 0 0 1 2 2v14h-48zm192 292a2.002 2.002 0 0 1 -2 2h-60a2.002 2.002 0 0 1 -2-2v-28a2.002 2.002 0 0 1 2-2h60a2.002 2.002 0 0 1 2 2zm176-44.5106v-25.4894h-16v36a51.718 51.718 0 0 1 -20 4h-124.1106a18.026 18.026 0 0 0 -17.8894-16h-60a18.0258 18.0258 0 0 0 -17.8893 16h-144.1107v-232h384v176h16v-176h4a12.0137 12.0137 0 0 1 12 12v168a51.8555 51.8555 0 0 1 -16 37.4894z"/><path d="m328 224h-32v-32a8 8 0 0 0 -8-8h-64a8 8 0 0 0 -8 8v32h-32a8 8 0 0 0 -8 8v64a8 8 0 0 0 8 8h32v32a8 8 0 0 0 8 8h64a8 8 0 0 0 8-8v-32h32a8 8 0 0 0 8-8v-64a8 8 0 0 0 -8-8zm-8 64h-32a8 8 0 0 0 -8 8v32h-48v-32a8 8 0 0 0 -8-8h-32v-48h32a8 8 0 0 0 8-8v-32h48v32a8 8 0 0 0 8 8h32z"/><path d="m240 392h32v16h-32z"/></g></g></g></svg>