<svg id="Capa_1" enable-background="new 0 0 512 512" height="512" viewBox="0 0 512 512" width="512" xmlns="http://www.w3.org/2000/svg"><g><g><g><g><g><path d="m107.632 256.889c-57.575 0-104.416-46.841-104.416-104.416s46.84-104.416 104.416-104.416 104.416 46.841 104.416 104.416c-.001 57.575-46.841 104.416-104.416 104.416zm0-155.399c-28.112 0-50.982 22.871-50.982 50.982 0 28.112 22.871 50.983 50.982 50.983s50.982-22.871 50.982-50.983c0-28.111-22.871-50.982-50.982-50.982z" fill="#e0d3ce"/></g><g><path d="m114.443 48.304v53.655c24.901 3.341 44.172 24.713 44.172 50.514s-19.27 47.173-44.172 50.514v53.655c54.41-3.524 97.605-48.885 97.605-104.17 0-55.284-43.196-100.645-97.605-104.168z" fill="#cdbfbb"/></g></g><g><g><path d="m508.774 31.421v135.592l-355.629 71.278v-206.87c0-17.359 14.072-31.421 31.42-31.421h292.788c17.359 0 31.421 14.062 31.421 31.421z" fill="#f3eae6"/><path d="m508.784 31.421v135.623l-.01-.031-41.413 8.303v-143.895c0-17.348-14.082-31.41-31.421-31.41h41.424c17.337-.001 31.42 14.061 31.42 31.41z" fill="#e0d3ce"/><path d="m508.774 156.711v132.42l-330.338-66.21z" fill="#8897dc"/><path d="m508.763 156.711v132.42l-41.403-8.304v-115.823z" fill="#6d81d5"/><path d="m508.774 278.829v64.973h-355.629v-136.251z" fill="#6d81d5"/><g fill="#5169cd"><path d="m385.41 254.104c-3.709 13.537-6.954 25.147-14.907 33.1-7.706 7.695-18.038 11.157-28.114 10.384l-30.163 30.174c-3.07 3.06-7.428 4.038-11.322 2.946l-75.265 75.265-24.642-24.642 75.255-75.265c-1.092-3.894-.113-8.252 2.957-11.322l30.174-30.164c-.649-8.499 1.71-17.173 7.077-24.302z"/><path d="m508.763 278.829v64.973h-41.403v-73.266z"/><path d="m508.774 333.5v11.002c0 69.403-56.269 125.672-125.672 125.672h-104.275c-69.413 0-125.682-56.268-125.682-125.672v-11.002z"/></g><path d="m298.112 333.5-72.473 72.474-24.642-24.642 47.821-47.832z" fill="#3351c5"/><path d="m508.768 333.498v11.009c0 69.398-56.265 125.675-125.675 125.675h-41.41c69.398 0 125.675-56.277 125.675-125.675v-11.009z" fill="#3351c5"/></g></g></g><g><g><g><g><g><g><g><path d="m164.242 382.028-16.492 16.492c-13.61 13.61-13.61 35.676 0 49.286 13.61 13.61 35.676 13.61 49.286 0l16.492-16.492z" fill="#5b5555"/><path d="m213.528 431.314-49.286-49.286" style="fill:none;stroke:#000;stroke-width:15;stroke-linecap:round;stroke-linejoin:round;stroke-miterlimit:10"/></g></g></g></g><g><path d="m234.583 311.687-43.298-43.298c-40.928-40.928-107.286-40.928-148.215 0-40.928 40.928-40.928 107.286 0 148.215l89.234 89.234c7.769 7.769 20.428 8.345 28.468.857 8.441-7.862 8.618-21.083.532-29.17l4.617 4.617c7.769 7.769 20.428 8.345 28.468.857 8.441-7.862 8.619-21.083.532-29.17l10.314 10.314c7.913 7.913 20.743 7.913 28.656 0 7.913-7.913 7.913-20.743 0-28.656l-10.314-10.314c7.913 7.913 20.743 7.913 28.656 0 7.913-7.913 7.913-20.743 0-28.656l-51.24-51.24z" fill="#ffcec0"/><path d="m205.234 464.135-10.312-10.312c8.088 8.088 7.912 21.31-.536 29.178-8.035 7.49-20.695 6.91-28.466-.862l-4.615-4.615c8.088 8.088 7.912 21.31-.527 29.169-8.044 7.481-20.704 6.919-28.475-.853l-20.246-20.246c7.771 7.771 20.431 8.334 28.475.853 8.439-7.859 8.615-21.082.527-29.169l4.615 4.615c7.771 7.771 20.431 8.352 28.466.862 8.449-7.868 8.624-21.09.536-29.178l10.312 10.312c7.921 7.921 20.738 7.921 28.651.009 3.956-3.956 5.943-9.143 5.943-14.33s-1.987-10.374-5.943-14.33l-10.312-10.312c7.912 7.912 20.747 7.912 28.66 0 3.956-3.956 5.934-9.152 5.934-14.321 0-5.204-1.978-10.383-5.934-14.339l20.246 20.246c3.956 3.956 5.943 9.143 5.925 14.33.018 5.187-1.969 10.374-5.925 14.33-7.912 7.912-20.747 7.912-28.66 0l10.312 10.312c3.965 3.965 5.943 9.143 5.943 14.33s-1.987 10.374-5.943 14.33c-7.913 7.912-20.731 7.912-28.651-.009z" fill="#fdb0a0"/><path d="m183.916 304.042h47.505v28.632h-47.505z" fill="#fdb0a0" transform="matrix(.707 -.707 .707 .707 -164.288 240.089)"/><g><path d="m233.891 435.488c3.956 3.956 5.934 9.138 5.934 14.33 0 .803-.052 1.597-.144 2.39l-66.395-66.395c-3.008-3.018-3.008-7.912 0-10.93 3.018-3.018 7.912-3.018 10.93 0l56.083 56.083c-5.954.711-12.156-1.226-16.72-5.79z" fill="#f9a08f"/></g><g><path d="m221.951 469.938c-5.944.701-12.156-1.226-16.72-5.8l-10.312-10.312c4.564 4.564 6.49 10.755 5.79 16.71l-56.073-56.062c-3.018-3.018-3.018-7.912 0-10.93s7.912-3.018 10.93 0z" fill="#f9a08f"/></g><g><path d="m165.919 482.145-4.615-4.626c4.564 4.564 6.5 10.765 5.789 16.72l-51.117-51.118c-3.018-3.018-3.018-7.902 0-10.92s7.912-3.018 10.93 0l56.001 55.99c-6.058.64-12.383-1.441-16.988-6.046z" fill="#f9a08f"/></g></g></g></g><g><path d="m190.391 284.825h156.543v34.851h-156.543z" fill="#54c032" transform="matrix(.707 -.707 .707 .707 -135.034 278.5)"/><g><path d="m258.172 410.847c0 .804-.051 1.597-.144 2.39l-88.181-88.181c-2.992-2.993-3.296-7.908-.394-10.989 3.002-3.188 8.021-3.245 11.096-.17l25.909 25.919c-3.015 3.015-3.015 7.904 0 10.92l45.781 45.781c3.955 3.956 5.933 9.137 5.933 14.33z" fill="#f9a08f"/></g><path d="m258.26 256.713h77.028v34.851h-77.028z" fill="#4ba72d" transform="matrix(.707 -.707 .707 .707 -106.922 290.145)"/></g><g><path d="m344.359 259.57-32.133 32.133c-4.526 4.526-11.868 4.517-16.394-.009l-16.621-16.621c-4.526-4.526-4.526-11.859 0-16.385l32.133-32.133z" fill="#cdbfbb"/><path d="m344.359 259.57-18.413 18.413c-8.24-.643-16.309-4.101-22.611-10.403s-9.761-14.372-10.403-22.612l18.413-18.413z" fill="#b9acac"/></g><path d="m370.505 251.143c-14.01 14.01-36.725 14.01-50.735 0s-14.01-36.725 0-50.735c30.333-30.333 85.692-33.744 77.154-15.865-12.986 27.194-12.409 52.59-26.419 66.6z" fill="#fcc16d"/><path d="m370.507 251.148c-14.013 14.013-36.728 14.013-50.741 0-3.723-3.723-6.454-8.06-8.202-12.68 12.784 4.828 27.77 2.088 38.061-8.202 12.104-12.104 13.314-32.722 21.799-55.645 17.358-2.844 29.897.718 25.493 9.921-12.983 27.194-12.397 52.593-26.41 66.606z" fill="#fca62f"/></g></g><g><path d="m153.145 34.12h355.629v15.453h-355.629z" fill="#cdbfbb"/></g></g></svg>