<svg height="512" viewBox="0 0 64 64" width="512" xmlns="http://www.w3.org/2000/svg"><g id="Service_portfolio" data-name="Service portfolio"><path d="m59 14h-46a2.006 2.006 0 0 0 -2 2v16h50v-16a2.006 2.006 0 0 0 -2-2z" fill="#a97c50"/><path d="m34 32h-3v18h26a2 2 0 0 0 2-2v-16z" fill="#8b5e3c"/><path d="m27 31v-3-1h-16-2v6h-6v24h24z" fill="#ffcd00"/><path d="m9 27-6 6h6z" fill="#ff5023"/><path d="m38 29a1 1 0 0 0 -1-1h-2a1 1 0 0 0 -1 1v3h4z" fill="#7ed63e"/><path d="m54 12a2 2 0 0 0 -4 0v2h4z" fill="#ed1c24"/><path d="m22 12a2 2 0 0 0 -4 0v2h4z" fill="#ed1c24"/><path d="m29 7a1 1 0 0 1 1-1h12a1 1 0 0 1 1 1v7h3v-7a4 4 0 0 0 -4-4h-12a4 4 0 0 0 -4 4v7h3z" fill="#603913"/><path d="m13 37v-6l-6 6z" fill="#ff7956"/><path d="m27 31h-14v6h-6v20 4h24v-11-18-1z" fill="#ffeb99"/><path d="m30 32h29v2h-29z" fill="#754c29"/><path d="m35 38h2a1 1 0 0 0 1-1v-5h-4v5a1 1 0 0 0 1 1z" fill="#4e901e"/><path d="m11 61h20v-21c0 11.607-8.945 21-20 21z" fill="#ffe477"/><path d="m59 13h-4v-1a3 3 0 0 0 -6 0v1h-2v-6a5.006 5.006 0 0 0 -5-5h-12a5.006 5.006 0 0 0 -5 5v6h-2v-1a3 3 0 0 0 -6 0v1h-4a3 3 0 0 0 -3 3v10h-1a1 1 0 0 0 -.707.293l-6 6a1 1 0 0 0 -.293.707v24a1 1 0 0 0 1 1h3v3a1 1 0 0 0 1 1h24a1 1 0 0 0 1-1v-10h25a3 3 0 0 0 3-3v-15h1a1 1 0 0 0 1-1v-16a3 3 0 0 0 -3-3zm-8-1a1 1 0 0 1 2 0v1h-2zm-24-5a3 3 0 0 1 3-3h12a3 3 0 0 1 3 3v6h-1v-6a2 2 0 0 0 -2-2h-12a2 2 0 0 0 -2 2v6h-1zm15 0v6h-12v-6zm-23 5a1 1 0 0 1 2 0v1h-2zm-9 16h16v2h-13a1 1 0 0 0 -.707.293l-2.293 2.293zm2 5.414v2.586h-2.586zm-4-4v2.586h-2.586zm-1.707 6.879a1 1 0 0 0 -.293.707v19h-2v-22h4.586zm23.707 23.707h-22v-22h5a1 1 0 0 0 1-1v-5h16zm28-12a1 1 0 0 1 -1 1h-25v-16h1v4a2 2 0 0 0 2 2h2a2 2 0 0 0 2-2v-4h19zm-21-11h-2v-4h2zm0-6h-2v-2h2zm23 0h-21v-2a2 2 0 0 0 -2-2h-2a2 2 0 0 0 -2 2v2h-1a1 1 0 0 0 -1-1h-3v-3a1 1 0 0 0 -1-1h-15v-10a1 1 0 0 1 1-1h46a1 1 0 0 1 1 1z"/><path d="m27 42h-16a1 1 0 0 1 0-2h16a1 1 0 0 1 0 2z"/><path d="m27 38h-10a1 1 0 0 1 0-2h10a1 1 0 0 1 0 2z"/><path d="m27 46h-16a1 1 0 0 1 0-2h16a1 1 0 0 1 0 2z"/><path d="m27 50h-16a1 1 0 0 1 0-2h16a1 1 0 0 1 0 2z"/><path d="m27 54h-16a1 1 0 0 1 0-2h16a1 1 0 0 1 0 2z"/><path d="m27 58h-16a1 1 0 0 1 0-2h16a1 1 0 0 1 0 2z"/></g></svg>