<svg id="Capa_1" enable-background="new 0 0 509.189 509.189" height="512" viewBox="0 0 509.189 509.189" width="512" xmlns="http://www.w3.org/2000/svg"><g><g><g><path d="m424.493 501.689h-339.797v-23.022c0-11.636 9.433-21.069 21.068-21.069h297.66c11.636 0 21.069 9.433 21.069 21.069z" fill="#a29aa5"/></g></g><g><g><ellipse cx="254.594" cy="57.061" fill="#a29aa5" rx="28.162" ry="28.162" transform="matrix(.933 -.36 .36 .933 -3.455 95.593)"/></g></g><g><g><path d="m214.793 195.985-94.01 261.613h133.811 133.812l-133.812-372.374-22.126 61.574" fill="#655e67"/></g></g><g><g><path d="m254.594 85.224-15 41.742 118.812 330.632h30z" fill="#544f56"/></g></g><g><g><path d="m232.468 146.798-17.675 49.187" fill="#655e67"/></g></g><g><g><path d="m388.41 397.19h-267.631c-10.269 0-18.594-8.325-18.594-18.594v-2.678c0-10.269 8.325-18.594 18.594-18.594h267.631c10.269 0 18.594 8.325 18.594 18.594v2.678c0 10.269-8.325 18.594-18.594 18.594z" fill="#b1abb4"/></g></g><g><g><path d="m340.612 291.344h-172.036c-10.269 0-18.594-8.325-18.594-18.594v-2.678c0-10.269 8.325-18.594 18.594-18.594h172.036c10.269 0 18.594 8.325 18.594 18.594v2.678c.001 10.269-8.324 18.594-18.594 18.594z" fill="#b1abb4"/></g></g><g><g><path d="m311.934 191.4h-114.679c-10.269 0-18.594-8.325-18.594-18.594v-2.678c0-10.269 8.325-18.594 18.594-18.594h114.679c10.269 0 18.594 8.325 18.594 18.594v2.678c0 10.269-8.325 18.594-18.594 18.594z" fill="#a29aa5"/></g></g><g><g><path d="m311.934 151.534h-30c10.269 0 18.594 8.325 18.594 18.594v2.678c0 10.27-8.325 18.595-18.594 18.595h30c10.269 0 18.594-8.325 18.594-18.595v-2.678c0-10.269-8.325-18.594-18.594-18.594z" fill="#8c818f"/></g></g><g><g><path d="m403.424 457.598h-30c11.636 0 21.069 9.433 21.069 21.069v23.022h30v-23.022c0-11.636-9.433-21.069-21.069-21.069z" fill="#8c818f"/></g></g><g><g><path d="m388.41 357.323h-30c10.269 0 18.594 8.325 18.594 18.595v2.677c0 10.27-8.325 18.595-18.594 18.595h30c10.269 0 18.594-8.325 18.594-18.595v-2.677c0-10.27-8.325-18.595-18.594-18.595z" fill="#a29aa5"/></g></g><g><g><path d="m340.612 251.478h-30c10.269 0 18.594 8.325 18.594 18.594v2.678c0 10.27-8.325 18.594-18.594 18.594h30c10.269 0 18.594-8.325 18.594-18.594v-2.678c.001-10.269-8.324-18.594-18.594-18.594z" fill="#a29aa5"/></g></g><g><path d="m403.424 450.098h-9.783c-.059-.23-.127-.46-.209-.688l-16.07-44.72h11.047c14.388 0 26.094-11.706 26.094-26.095v-2.677c0-14.389-11.706-26.095-26.094-26.095h-30.763l-18.319-50.979h1.285c14.389 0 26.094-11.706 26.094-26.095v-2.678c0-14.388-11.706-26.094-26.094-26.094h-21.001l-16.198-45.077h8.521c14.389 0 26.095-11.706 26.095-26.095v-2.677c0-14.389-11.706-26.095-26.095-26.095h-28.237l-18.968-52.786c14.742-4.378 25.528-18.043 25.528-34.186 0-19.664-15.998-35.662-35.662-35.662s-35.662 15.998-35.662 35.662c0 16.144 10.786 29.809 25.528 34.186l-18.968 52.786h-28.237c-14.388 0-26.094 11.706-26.094 26.095v2.677c0 14.389 11.706 26.095 26.094 26.095h8.521l-16.198 45.077h-21.001c-14.389 0-26.094 11.706-26.094 26.094v2.678c0 14.389 11.706 26.095 26.094 26.095h1.285l-18.319 50.979h-30.763c-14.388 0-26.094 11.706-26.094 26.095v2.677c0 14.389 11.706 26.095 26.094 26.095h11.047l-15.842 44.087c-.157.437-.265.879-.338 1.321h-9.881c-15.752 0-28.568 12.816-28.568 28.569v23.022c0 4.142 3.358 7.5 7.5 7.5h214.516c4.142 0 7.5-3.358 7.5-7.5s-3.358-7.5-7.5-7.5h-207.019v-15.522c0-7.482 6.087-13.569 13.568-13.569h297.66c7.481 0 13.568 6.087 13.568 13.569v15.522h-87.781c-4.142 0-7.5 3.358-7.5 7.5s3.358 7.5 7.5 7.5h95.281c4.142 0 7.5-3.358 7.5-7.5v-23.022c.001-15.753-12.815-28.569-28.568-28.569zm-169.492-393.036c0-11.393 9.269-20.662 20.662-20.662s20.662 9.269 20.662 20.662-9.269 20.662-20.662 20.662-20.662-9.269-20.662-20.662zm20.662 50.339 13.164 36.632h-26.328zm-68.434 65.405v-2.677c0-6.118 4.977-11.095 11.094-11.095h114.679c6.118 0 11.095 4.977 11.095 11.095v2.677c0 6.118-4.977 11.095-11.095 11.095h-114.678c-6.118-.001-11.095-4.978-11.095-11.095zm35.554 26.094h65.76l16.198 45.077h-98.156zm-64.232 73.85v-2.678c0-6.117 4.977-11.094 11.094-11.094h172.036c6.117 0 11.094 4.977 11.094 11.094v2.678c0 6.118-4.977 11.095-11.094 11.095h-172.036c-6.117-.001-11.094-4.978-11.094-11.095zm-47.797 105.845v-2.677c0-6.118 4.977-11.095 11.094-11.095h80.07c4.142 0 7.5-3.358 7.5-7.5s-3.358-7.5-7.5-7.5h-33.368l18.319-50.979h137.601c.025.076.042.152.069.227l18.237 50.752h-110.858c-4.142 0-7.5 3.358-7.5 7.5s3.358 7.5 7.5 7.5h157.561c6.117 0 11.094 4.977 11.094 11.095v2.677c0 6.118-4.977 11.095-11.094 11.095h-267.631c-6.117 0-11.094-4.977-11.094-11.095zm38.08 26.095h213.659l16.317 45.408h-246.293z"/><path d="m195.545 93.533c1.464 1.464 3.384 2.197 5.303 2.197s3.839-.732 5.303-2.197c2.929-2.929 2.929-7.678 0-10.606-6.826-6.826-10.585-15.902-10.585-25.555 0-9.654 3.759-18.729 10.585-25.556 2.929-2.929 2.929-7.678 0-10.606-2.929-2.929-7.678-2.929-10.606 0-9.659 9.659-14.979 22.502-14.979 36.162s5.32 26.502 14.979 36.161z"/><path d="m175.079 116.139c1.919 0 3.839-.733 5.303-2.197 2.929-2.929 2.929-7.677 0-10.607-12.277-12.278-19.039-28.602-19.039-45.965 0-16.711 6.328-32.589 17.818-44.711 2.85-3.006 2.723-7.753-.284-10.603s-7.754-2.723-10.603.284c-14.143 14.92-21.932 34.463-21.932 55.03 0 21.369 8.322 41.46 23.433 56.571 1.465 1.466 3.385 2.198 5.304 2.198z"/><path d="m303.037 93.533c1.464 1.464 3.384 2.197 5.303 2.197s3.839-.732 5.303-2.197c9.659-9.659 14.979-22.501 14.979-36.162s-5.32-26.503-14.979-36.162c-2.929-2.929-7.678-2.929-10.606 0-2.929 2.929-2.929 7.678 0 10.606 6.826 6.826 10.585 15.902 10.585 25.556 0 9.653-3.759 18.729-10.585 25.555-2.93 2.929-2.93 7.678 0 10.607z"/><path d="m347.845 57.371c0 17.363-6.762 33.687-19.039 45.965-2.929 2.929-2.929 7.678 0 10.607 1.464 1.465 3.384 2.197 5.303 2.197s3.839-.733 5.303-2.197c15.111-15.111 23.433-35.202 23.433-56.571 0-20.567-7.789-40.11-21.932-55.03-2.85-3.006-7.597-3.132-10.603-.284-3.006 2.85-3.133 7.597-.284 10.603 11.491 12.121 17.819 27.999 17.819 44.71z"/></g></g></svg>