<?xml version="1.0" encoding="iso-8859-1"?>
<!-- Generator: Adobe Illustrator 19.0.0, SVG Export Plug-In . SVG Version: 6.00 Build 0)  -->
<svg version="1.1" id="Capa_1" xmlns="http://www.w3.org/2000/svg" xmlns:xlink="http://www.w3.org/1999/xlink" x="0px" y="0px"
	 viewBox="0 0 512 512" style="enable-background:new 0 0 512 512;" xml:space="preserve">
<rect x="7.485" y="33.435" style="fill:#B39A7C;" width="497.029" height="29.942"/>
<rect x="102.3" y="101.302" style="fill:#82B1FF;" width="402.214" height="130.745"/>
<g>
	<polygon style="fill:#B0BEC5;" points="504.515,327.86 504.515,504.515 316.881,504.515 316.881,327.86 410.698,261.988 	"/>
	<polygon style="fill:#B0BEC5;" points="260.99,327.86 260.99,504.515 73.357,504.515 73.357,327.86 167.173,261.988 	"/>
</g>
<g>
	<polygon style="fill:#90A4AE;" points="210.679,292.539 260.99,327.86 260.99,504.515 175.158,504.515 175.158,317.48 	"/>
	<polygon style="fill:#90A4AE;" points="402.713,317.48 402.713,504.515 316.881,504.515 316.881,327.86 367.193,292.539 	"/>
</g>
<polygon style="fill:#F4511E;" points="382.752,504.515 195.119,504.515 195.119,327.86 288.936,261.988 382.752,327.86 "/>
<g>
	<rect x="382.752" y="376.764" style="fill:#FDD844;" width="69.864" height="127.75"/>
	<rect x="125.255" y="376.764" style="fill:#FDD844;" width="69.864" height="127.75"/>
</g>
<rect x="23.454" y="33.435" style="fill:#A78966;" width="69.864" height="29.942"/>
<polygon style="fill:#90A4AE;" points="93.318,313.847 93.318,504.515 73.357,504.515 73.357,327.86 "/>
<rect x="43.415" y="7.485" style="fill:#B39A7C;" width="29.942" height="497.029"/>
<rect x="195.119" y="484.554" style="fill:#D84315;" width="187.634" height="19.961"/>
<rect x="254.004" y="370.776" style="fill:#BCAAA4;" width="69.864" height="133.739"/>
<rect x="254.004" y="370.776" style="fill:#A1887F;" width="69.864" height="19.961"/>
<g>
	<polygon style="fill:#FDAB08;" points="452.616,376.764 382.752,376.764 382.752,504.515 402.713,504.515 402.713,396.725 
		452.616,396.725 	"/>
	<polygon style="fill:#FDAB08;" points="125.255,376.764 125.255,396.725 175.158,396.725 175.158,504.515 195.119,504.515 
		195.119,376.764 	"/>
</g>
<path d="M512,70.862V25.949H80.842V0H35.93v25.949H0v44.912h35.93V512H512V323.969l-101.302-71.127l-60.881,42.747l-60.881-42.747
	l-60.881,42.747l-60.881-42.747l-86.331,60.616V70.862h46.908v22.955H94.815v145.715H512V93.817h-32.936V70.862H512z
	 M497.029,55.891h-17.965V40.92h17.965V55.891z M464.094,55.891H142.721V40.92h321.372V55.891z M14.971,55.891V40.92H35.93v14.971
	H14.971z M132.741,497.029V384.25h54.893v112.78H132.741z M261.489,497.029V378.261h54.893v118.768H261.489z M375.267,497.029
	h-43.914V363.29h-84.834v133.739h-43.914V331.75l0,0l86.331-60.616l86.331,60.616l0,0V497.029z M390.238,497.029V384.25h54.893
	v112.78H390.238z M410.698,271.134l86.331,60.616v165.279h-36.928v-127.75h-69.864v-27.017l19.153,13.448l8.602-12.252
	l-55.15-38.722L410.698,271.134z M167.173,271.134l47.855,33.6l-55.15,38.722l8.602,12.252l19.154-13.448v27.017H117.77v127.75
	H80.842V331.75L167.173,271.134z M65.871,323.969v173.06H50.901V14.971l0,0l0,0h14.971l0,0l0,0V323.969z M80.842,55.891V40.92
	h46.908v14.971H80.842z M497.029,224.561H109.786V108.788h387.244V224.561z M464.094,93.817H142.721V70.862h321.372V93.817z"/>
<g>
	<path style="fill:#FFFFFF;" d="M470.272,349.547l-14.05-9.865l8.602-12.252l14.05,9.865L470.272,349.547z M443.971,331.081
		L406.397,304.7l8.602-12.252l37.574,26.382L443.971,331.081z"/>
	<path style="fill:#FFFFFF;" d="M107.6,349.547l-8.602-12.252l14.05-9.865l8.602,12.252L107.6,349.547z M133.9,331.081
		l-8.602-12.252l37.574-26.382l8.602,12.252L133.9,331.081z"/>
	<path style="fill:#FFFFFF;" d="M361.294,445.131h-14.971V430.16h14.971V445.131z M361.294,415.189h-14.971v-14.971h14.971V415.189z
		 M361.294,385.248h-14.971v-14.971h14.971V385.248z"/>
	<path style="fill:#FFFFFF;" d="M231.548,445.131h-14.971V430.16h14.971V445.131z M231.548,415.189h-14.971v-14.971h14.971V415.189z
		 M231.548,385.248h-14.971v-14.971h14.971V385.248z"/>
	<rect x="247.517" y="326.363" style="fill:#FFFFFF;" width="82.838" height="14.971"/>
	<path style="fill:#FFFFFF;" d="M184.473,173.661h-53.728v-51.899h53.728c14.309,0,25.949,11.641,25.949,25.949
		S198.782,173.661,184.473,173.661z M145.715,158.69h38.757c6.053,0,10.979-4.925,10.979-10.979s-4.925-10.979-10.979-10.979
		h-38.757V158.69z"/>
	<path style="fill:#FFFFFF;" d="M210.422,207.096h-14.971v-20.959c0-6.88-5.596-12.476-12.476-12.476h-37.26v33.435h-14.971V158.69
		h52.231c15.133,0,27.446,12.312,27.446,27.446L210.422,207.096L210.422,207.096z"/>
	<rect x="229.881" y="157.692" style="fill:#FFFFFF;" width="63.875" height="14.971"/>
	<polygon style="fill:#FFFFFF;" points="293.759,207.595 222.399,207.595 222.399,121.762 293.759,121.762 293.759,136.733 
		237.369,136.733 237.369,192.624 293.759,192.624 	"/>
	<polygon style="fill:#FFFFFF;" points="319.21,208.094 304.239,208.094 304.239,121.762 321.681,121.762 370.11,181.461 
		370.11,122.261 385.081,122.261 385.081,207.595 372.033,207.595 319.21,142.48 	"/>
	<rect x="395.557" y="122.76" style="fill:#FFFFFF;" width="82.838" height="14.971"/>
	<rect x="429.491" y="130.246" style="fill:#FFFFFF;" width="14.971" height="76.85"/>
</g>
<g>
</g>
<g>
</g>
<g>
</g>
<g>
</g>
<g>
</g>
<g>
</g>
<g>
</g>
<g>
</g>
<g>
</g>
<g>
</g>
<g>
</g>
<g>
</g>
<g>
</g>
<g>
</g>
<g>
</g>
</svg>
