<svg height="512" viewBox="0 0 512 512" width="512" xmlns="http://www.w3.org/2000/svg"><g id="Filled_outline" data-name="Filled outline"><path d="m24 200v32h32v-32a144 144 0 0 1 144-144 144 144 0 0 1 144 144v32h32v-32a176 176 0 0 0 -176-176 176 176 0 0 0 -176 176z" fill="#85ccd5"/><path d="m320 248h-112v-80l32-32h48l32 32z" fill="#ffb431"/><path d="m240 88h48v48h-48z" fill="#d65246"/><path d="m92.686 131.314 59.314-59.314 40 40-16 16 27.314 27.314a16 16 0 0 1 4.686 11.313v161.373a16 16 0 0 1 -16 16h-88a16 16 0 0 1 -16-16v-185.373a16 16 0 0 1 4.686-11.313z" fill="#8851a0"/><path d="m152 72 24-24h24l16 16v24l-24 24z" fill="#d65246"/><path d="m344 200v32l-32 256h-224l-32-256v-32z" fill="#348ed8"/><path d="m208 408v80h-120l-10-80z" fill="#2c86d1"/><path d="m456 232h-112a48 48 0 0 1 48-48h64z" fill="#d65246"/><g fill="#c94c41"><path d="m432 232h24a0 0 0 0 1 0 0v48a0 0 0 0 1 0 0 24 24 0 0 1 -24-24v-24a0 0 0 0 1 0 0z"/><path d="m456 192h32v32h-32z"/><path d="m376 232h40v32h-40z"/></g><path d="m416 264h-40a151.383 151.383 0 0 1 -36.444 98.518l-11.556 13.482v96a16 16 0 0 0 16 16h104a16 16 0 0 0 16-16v-96l-11.556-13.482a151.383 151.383 0 0 1 -36.444-98.518z" fill="#ffb431"/><path d="m120.531 311.469 47.469-47.469v-64h128v184a16 16 0 0 1 -16 16 16 16 0 0 1 -16-16 16 16 0 0 1 -16 16 16 16 0 0 1 -16-16 16 16 0 0 1 -16 16 16 16 0 0 1 -16-16 16 16 0 0 1 -16 16 16 16 0 0 1 -16-16v-75l-27.372 23.95a14.716 14.716 0 0 1 -21.936-2.912 14.717 14.717 0 0 1 1.839-18.569z" fill="#4db6e4"/><path d="m24 424h168v64h-168z" fill="#ffb431"/><path d="m24 392h168v32h-168z" fill="#5f9448"/><path d="m48 448h16v16h-16z" fill="#f9a40f"/><path d="m80 440h16v16h-16z" fill="#f9a40f"/><path d="m152 448h16v16h-16z" fill="#f9a40f"/><path d="m200 32c80.14 0 149.474 56.985 164.86 135.5l15.7-3.077c-16.853-86.004-92.789-148.423-180.56-148.423a183.237 183.237 0 0 0 -126.459 50.345l11 11.62a167.3 167.3 0 0 1 115.459-45.965z"/><path d="m216 480h88v16h-88z"/><path d="m488 184h-24a8 8 0 0 0 -8-8h-64a55.823 55.823 0 0 0 -40.162 17.032 152.109 152.109 0 0 0 -113.205-140.074l-4.057 15.476a135.135 135.135 0 0 1 29.454 11.566h-24.03a8 8 0 0 0 -8 8v44.686l-20.273 20.274a24.4 24.4 0 0 0 -2.76-3.307l-21.654-21.653 34.344-34.343a8 8 0 0 0 2.343-5.657v-24a8 8 0 0 0 -2.343-5.657l-16-16a8 8 0 0 0 -5.657-2.343h-24a8 8 0 0 0 -5.657 2.343l-11.233 11.233a152.056 152.056 0 0 0 -111.11 146.424v24h-16v-24a168.144 168.144 0 0 1 39.244-107.921l-12.256-10.285a184.166 184.166 0 0 0 -42.988 118.206v32a8 8 0 0 0 8 8h24.938l15.862 126.9 15.877-1.984-16.677-133.416v-23.5h96v16h-80v16h80v20.687l-45.127 45.126a22.717 22.717 0 0 0 31.027 33.158l14.1-12.34v41.369h16v-59a8 8 0 0 0 -13.269-6.021l-27.368 23.949a6.716 6.716 0 0 1 -9.175-9.8l47.469-47.47a8 8 0 0 0 2.343-5.658v-56h112v176a8 8 0 1 1 -16 0v-64h-16v64a8 8 0 1 1 -16 0v-64h-16v64a8.014 8.014 0 0 1 -11.117 7.375l-6.227 14.738a24.045 24.045 0 0 0 25.344-4.213 24.031 24.031 0 0 0 32 0 24.009 24.009 0 0 0 40-17.9v-144h30.938l-12.684 101.469 15.877 1.985 12.931-103.454h16.938v24a143.47 143.47 0 0 1 -34.519 93.312l-11.555 13.481a8.008 8.008 0 0 0 -1.926 5.207v96a24.027 24.027 0 0 0 24 24h104a24.027 24.027 0 0 0 24-24v-40h-16v40a8.009 8.009 0 0 1 -8 8h-104a8.009 8.009 0 0 1 -8-8v-93.041l9.63-11.234a159.5 159.5 0 0 0 38.17-95.725h24.4a159.5 159.5 0 0 0 38.169 95.725l.236.275h-86.605v16h96v32h16v-40a8.008 8.008 0 0 0 -1.926-5.207l-11.555-13.481a143.47 143.47 0 0 1 -34.519-93.312v-8a32.036 32.036 0 0 0 32 32 8 8 0 0 0 8-8v-48h24a8 8 0 0 0 8-8v-32a8 8 0 0 0 -8-8zm-191.837-80.163a135 135 0 0 1 39.597 88.163h-7.76v-24a8 8 0 0 0 -2.343-5.657l-29.657-29.657v-29.007c.054.054.11.104.163.158zm-48.163-7.837h32v32h-32zm-68.687-40h17.374l11.313 11.314v17.372l-16 16-28.686-28.686zm-51.013 28.39-41.267 41.263a23.856 23.856 0 0 0 -7.033 16.977v49.37h-15.761a136.17 136.17 0 0 1 64.061-107.61zm-32.3 107.61v-49.37a7.956 7.956 0 0 1 2.348-5.663l53.652-53.653 28.686 28.686-10.343 10.343a8 8 0 0 0 0 11.314l27.309 27.31a7.956 7.956 0 0 1 2.348 5.663v25.37zm120 0v-20.686l27.313-27.314h41.374l16 16h-44.687v16h56v16zm88 16h32v16h-32zm88-16h56v32h-95.2a40.071 40.071 0 0 1 39.2-32zm-8 64v-16h24v16zm64 13.853a16.01 16.01 0 0 1 -8-13.853v-16h8zm32-53.853h-16v-16h16z"/><path d="m192 320h16v48h-16z"/><path d="m192 384h-168a8 8 0 0 0 -8 8v96a8 8 0 0 0 8 8h168a8 8 0 0 0 8-8v-96a8 8 0 0 0 -8-8zm-160 16h152v16h-152zm152 80h-152v-48h152z"/><path d="m48 448h16v16h-16z"/><path d="m80 440h16v16h-16z"/><path d="m152 448h16v16h-16z"/></g></svg>